<svg width="109" height="30" viewBox="0 0 109 30" fill="none" xmlns="http://www.w3.org/2000/svg">
<path d="M41.4259.620768 32.0647 25.0625h5.0282l1.9244-5.1069h9.9323l1.9327 5.1069h4.991L46.57.620768h-5.1441ZM40.7431 15.4695l3.2693-8.59967 3.257 8.59967h-6.5263ZM61.8822 18.7596 57.8224 7.89206H53.026l6.5387 17.17044h4.7551l6.4229-17.17044h-4.7965l-4.064 10.86754ZM76.7766 7.89206h-4.5647V25.0625h4.5647V7.89206ZM74.4922 6.65463c1.8376 0 3.3273-1.48969 3.3273-3.32731C77.8195 1.48969 76.3298 0 74.4922 0c-1.8377 0-3.3274 1.48969-3.3274 3.32732 0 1.83762 1.4897 3.32731 3.3274 3.32731ZM85.8233 3.31076H81.271v4.5523h-2.6693v4.13844h2.6693v7.2961c0 4.1385 2.2803 5.918 5.4918 5.918 1.0837.0143 2.1588-.1957 3.1576-.6166v-4.2544c-.5451.1997-1.1204.3046-1.7009.3104-1.3947 0-2.4003-.5421-2.4003-2.4003v-6.2532h4.1012V7.90444h-4.0971V3.31076ZM99.5174 7.58167c-1.7602-.00081-3.481.52043-4.9449 1.49781-1.4638.97742-2.6049 2.36692-3.2788 3.99292-.674 1.6261-.8506 3.4154-.5074 5.1418.3432 1.7263 1.1907 3.3121 2.4353 4.5568 1.2446 1.2446 2.8304 2.0921 4.5568 2.4353 1.7264.3431 3.5156.1666 5.1416-.5074 1.626-.6739 3.016-1.815 3.993-3.2788.977-1.4639 1.499-3.1847 1.498-4.9449-.001-2.3584-.939-4.6198-2.606-6.2875-1.668-1.66758-3.929-2.60493-6.2876-2.60603Zm0 13.24303c-.8572.0008-1.6953-.2526-2.4084-.7282-.7131-.4756-1.2691-1.152-1.5977-1.9437-.3286-.7917-.415-1.663-.2483-2.5038.1668-.8408.5791-1.6132 1.1849-2.2196.6058-.6064 1.3779-1.0195 2.2185-1.187.8406-.1676 1.7116-.082 2.5036.2458.792.3279 1.469.8832 1.946 1.5959.476.7126.73 1.5505.73 2.4077-.002 1.1462-.459 2.2447-1.271 3.0541-.812.8094-1.911 1.2634-3.0576 1.2623v.0165Z" fill="#000"/>
<path d="M8.89768 27.5c4.91402 0 8.89772-3.9836 8.89772-8.8977 0-4.914-3.9837-8.89765-8.89772-8.89765C3.98363 9.70465 0 13.6883 0 18.6023 0 23.5164 3.98363 27.5 8.89768 27.5Z" fill="#04E061"/>
<path d="M24.33 26.3785c2.969 0 5.3758-2.4068 5.3758-5.3758s-2.4068-5.3759-5.3758-5.3759-5.3759 2.4069-5.3759 5.3759 2.4069 5.3758 5.3759 5.3758Z" fill="#FF4053"/>
<path d="M10.5986 8.55008c1.8376 0 3.3273-1.48969 3.3273-3.32732 0-1.83763-1.4897-3.32732-3.3273-3.32732-1.83762 0-3.32731 1.48969-3.32731 3.32732 0 1.83763 1.48969 3.32732 3.32731 3.32732Z" fill="#965EEB"/>
<path d="M22.2401 14.468c3.9952 0 7.234-3.2387 7.234-7.23398C29.4741 3.23878 26.2353 0 22.2401 0c-3.9953 0-7.2341 3.23878-7.2341 7.23402 0 3.99528 3.2388 7.23398 7.2341 7.23398Z" fill="#0AF"/>
</svg>