<svg width="143" height="36" viewBox="0 0 1062 234" fill="none" xmlns="http://www.w3.org/2000/svg"><g clip-path="url(#clip0)"><path d="m422.9 44.3 19.8-14.6h-66.1v87.399h66.1v-14.5h-47.2v-22.4h40.2V65.6h-40.2V44.3h27.4ZM326.7 63.8h-22.9V44.3h36.6l19.7-14.6h-75.2v87.399h39.4c22.1 0 34.8-10 34.8-27.5-.1-16.6-11.5-25.8-32.4-25.8Zm-3.3 38.799h-19.7v-24.2h19.7c12 0 17.5 4.1 17.5 12.1.1 8.2-5.8 12.1-17.5 12.1ZM496.2 29.7h-36v87.399h18.9v-24.8h17.1c23 0 37.2-12.1 37.2-31.4 0-19.2-14.2-31.2-37.2-31.2Zm-.4 48.1h-16.7V44.3h16.7c12.1 0 18.7 6 18.7 16.8s-6.6 16.7-18.7 16.7ZM252.5 98.2c-5 2.7-10.6 4.1-16.3 4.1-17 0-29.3-12.1-29.3-28.9 0-16.7 12.3-28.9 29.3-28.9 6.1-.1 12.2 1.8 17.2 5.4l13.5-10-.9-.8c-7.9-6.9-18.5-10.6-30.5-10.6-13.1 0-25 4.4-33.4 12.4-8.5 8.1-13.2 19.4-13.2 31.9 0 12.6 4.7 24.1 13.2 32.4 8.5 8.3 20.4 12.9 33.4 12.9 13.6 0 25.5-4.7 33.5-13.4l-12.2-9-4.3 2.5ZM130.2 28.9c3.4 4.4 6.4 9.3 8.7 14.5l-66.4 49L44.7 75V54l27.8 17.4 57.7-42.5Z" fill="#21A038"/><path d="M16.5 73.399c0-.9 0-1.9.1-2.8l-16.8-.8c-.1 1.2-.1 2.4-.1 3.6 0 20.1 8.2 38.4 21.4 51.6l11.9-11.9c-10.3-10.2-16.5-24.2-16.5-39.7Z" fill="url(#paint0_linear)"/><path d="M72.5 17.4c.9 0 1.9 0 2.8.1L76.1.7C74.9.6 73.7.6 72.5.6 52.4.6 34.1 8.8 20.9 22l11.9 11.9C43 23.6 57.1 17.4 72.5 17.4Z" fill="url(#paint1_linear)"/><path d="M72.5 129.5c-.9 0-1.9 0-2.8-.1l-.8 16.8c1.2.1 2.4.1 3.6.1 20.1 0 38.4-8.2 51.6-21.4L112.2 113C102 123.2 88 129.5 72.5 129.5Z" fill="url(#paint2_linear)"/><path d="m104.1 27.1 14.2-10.5C105.8 6.5 89.9.4 72.5.4v16.8c11.7.2 22.6 3.8 31.6 9.9Z" fill="url(#paint3_linear)"/><path d="M145.4 73.4c0-4.5-.4-8.8-1.2-13.1l-15.7 11.6v1.5c0 16.5-7.1 31.301-18.5 41.601l11.3 12.5c14.9-13.3 24.1-32.6 24.1-54.1Z" fill="#21A038"/><path d="M72.5 129.5c-16.5 0-31.3-7.1-41.6-18.5l-12.5 11.3c13.3 14.7 32.6 24 54.1 24v-16.8Z" fill="url(#paint4_linear)"/><path d="M34.9 31.9 23.6 19.4C8.9 32.7-.4 52-.4 73.5h16.8c.1-16.5 7.2-31.4 18.5-41.6Z" fill="url(#paint5_linear)"/><path d="m268 167.7-28 46.4h-7.9l-28.7-45.8v65h-15.6V146h19.7l28.9 47.5 28.7-47.5h18.5v87.3H268v-65.6ZM360.8 195.5h-40.2V219h46.1v14.3H305V146h60.4v14.3h-44.8v20.8h40.2v14.4ZM443.4 160.3h-43.7v73h-15.6V146h59.2v14.3h.1ZM523.6 233.3H507l-8.4-20.7h-40l-8.2 20.7h-15.8L470 146h17.7l35.9 87.3Zm-30.7-35-14.3-35.8-14.3 35.8h28.6ZM614.9 167.7l-28.1 46.4h-7.9l-28.7-45.8v65h-15.6V146h19.7l28.9 47.5L612 146h18.5v87.3h-15.6v-65.6ZM730.5 233.3h-16.6l-8.4-20.7h-40l-8.2 20.7h-15.8l35.4-87.3h17.7l35.9 87.3Zm-30.7-35-14.3-35.8-14.3 35.8h28.6ZM757.2 206.1v27.2h-15.6V146h29.1c13.8 0 23.8 2.5 30 7.4 6.2 4.9 9.3 12.3 9.3 22.1 0 10.2-3.3 17.9-10 22.9-6.7 5.1-16.4 7.6-29.3 7.6l-13.5.1Zm0-45.8v31.4h14.6c7.3 0 12.8-1.3 16.5-3.8 3.7-2.5 5.5-6.8 5.5-12.8 0-5.4-1.7-9.2-5.1-11.5-3.4-2.2-8.9-3.4-16.6-3.4l-14.9.1ZM841.5 233.3h-15.6V146h15.6v36.7h13.1l28.1-36.7h19l-33.3 41.5 38.7 45.8h-20l-31.7-37.8h-13.8l-.1 37.8ZM973.9 195.5h-40.2V219h46.1v14.3h-61.7V146h60.4v14.3h-44.8v20.8h40.2v14.4ZM1062 160.3h-29.4v73H1017v-73h-28.9V146h74l-.1 14.3Z" fill="#632895"/></g><defs><linearGradient id="paint0_linear" x1="24.381" y1="122.876" x2="5.977" y2="69.678" gradientUnits="userSpaceOnUse"><stop offset=".144" stop-color="#F2E913"/><stop offset=".304" stop-color="#E7E518"/><stop offset=".582" stop-color="#CADB26"/><stop offset=".891" stop-color="#A3CD39"/></linearGradient><linearGradient id="paint1_linear" x1="25.779" y1="24.853" x2="73.18" y2="6.79" gradientUnits="userSpaceOnUse"><stop offset=".059" stop-color="#0FA8E0"/><stop offset=".538" stop-color="#0099F9"/><stop offset=".923" stop-color="#0291EB"/></linearGradient><linearGradient id="paint2_linear" x1="67.771" y1="136.179" x2="121.373" y2="124.064" gradientUnits="userSpaceOnUse"><stop offset=".123" stop-color="#A3CD39"/><stop offset=".285" stop-color="#86C339"/><stop offset=".869" stop-color="#21A038"/></linearGradient><linearGradient id="paint3_linear" x1="69.001" y1="6.165" x2="114.829" y2="20.305" gradientUnits="userSpaceOnUse"><stop offset=".057" stop-color="#0291EB"/><stop offset=".79" stop-color="#0C8ACB"/></linearGradient><linearGradient id="paint4_linear" x1="22.683" y1="120.298" x2="72.568" y2="138.937" gradientUnits="userSpaceOnUse"><stop offset=".132" stop-color="#F2E913"/><stop offset=".298" stop-color="#EBE716"/><stop offset=".531" stop-color="#D9E01F"/><stop offset=".802" stop-color="#BBD62D"/><stop offset=".983" stop-color="#A3CD39"/></linearGradient><linearGradient id="paint5_linear" x1="5.889" y1="75.473" x2="25.913" y2="23.383" gradientUnits="userSpaceOnUse"><stop offset=".07" stop-color="#A3CD39"/><stop offset=".26" stop-color="#81C55F"/><stop offset=".922" stop-color="#0FA8E0"/></linearGradient><clipPath id="clip0"><path fill="#fff" d="M0 0h1062v234H0z"/></clipPath></defs></svg>